<?xml version="1.0" encoding="UTF-8"?>
<svg xmlns="http://www.w3.org/2000/svg" xmlns:xlink="http://www.w3.org/1999/xlink" width="200px" height="200px" viewBox="0 0 200 200" version="1.1">
<g id="surface1">
<path style=" stroke:none;fill-rule:nonzero;fill:rgb(100%,100%,100%);fill-opacity:1;" d="M 92.015625 9.199219 C 70.417969 19.792969 41.457031 27.480469 15.765625 29.417969 L 10.417969 29.84375 L 10.417969 42.613281 C 10.417969 62.289062 13.265625 84.625 17.777344 100.785156 C 19.515625 107.082031 24.652344 121.488281 25.554688 122.578125 C 25.832031 122.941406 27.222656 123.546875 28.679688 123.910156 C 31.109375 124.515625 31.320312 124.515625 30.832031 123.609375 C 30.554688 123.0625 29.167969 119.550781 27.707031 115.921875 C 20.207031 96.851562 16.320312 76.089844 15.347656 50.542969 C 15.070312 42.554688 14.929688 35.472656 15.140625 34.804688 C 15.347656 33.714844 16.527344 33.414062 25.554688 32.265625 C 40.140625 30.328125 50.140625 28.269531 62.984375 24.515625 C 74.445312 21.1875 86.945312 16.40625 94.582031 12.347656 C 97.917969 10.53125 99.027344 10.230469 100 10.773438 C 104.515625 13.195312 118.195312 19.128906 124.097656 21.1875 C 138.679688 26.210938 160.140625 30.992188 175.902344 32.75 L 182.640625 33.472656 L 182.640625 44.734375 C 182.640625 71.792969 177.082031 101.390625 168.472656 120.398438 L 166.734375 124.214844 L 169.304688 123.789062 C 170.695312 123.546875 172.015625 123.304688 172.082031 123.183594 C 172.222656 123.0625 173.542969 119.792969 175.070312 115.859375 C 182.984375 95.277344 186.597656 74.878906 187.292969 46.550781 L 187.707031 29.84375 L 182.222656 29.417969 C 175.484375 28.933594 158.542969 26.390625 151.042969 24.757812 C 136.109375 21.550781 118.75 15.558594 106.25 9.382812 C 102.5 7.566406 99.167969 6.054688 98.820312 6.113281 C 98.542969 6.113281 95.484375 7.507812 92.015625 9.199219 Z M 92.015625 9.199219 "/>
<path style=" stroke:none;fill-rule:nonzero;fill:rgb(100%,100%,100%);fill-opacity:1;" d="M 77.777344 61.257812 C 54.929688 107.992188 50.972656 115.4375 47.917969 117.613281 C 46.734375 118.523438 44.027344 119.671875 41.945312 120.21875 C 38.75 121.003906 38.195312 121.367188 38.195312 122.640625 L 38.195312 124.09375 L 74.304688 124.09375 L 74.304688 122.640625 C 74.304688 121.367188 73.890625 121.125 71.042969 120.761719 C 69.167969 120.519531 66.390625 119.855469 64.792969 119.25 C 59.445312 117.191406 59.722656 114.285156 66.527344 100.484375 L 71.390625 90.496094 L 116.179688 90.496094 L 118.195312 94.734375 C 123.957031 106.839844 125.695312 110.957031 126.109375 113.195312 C 126.390625 114.527344 126.945312 115.617188 127.429688 115.617188 C 127.847656 115.617188 129.582031 114.769531 131.179688 113.742188 C 136.527344 110.410156 137.5 105.085938 133.542969 100.300781 C 132.082031 98.488281 128.472656 96.246094 119.097656 91.34375 L 106.597656 84.746094 L 90.347656 84.746094 C 77.640625 84.746094 74.234375 84.5625 74.515625 83.957031 C 74.722656 83.59375 77.015625 78.996094 79.582031 73.851562 C 84.167969 64.710938 84.304688 64.285156 84.722656 58.113281 C 85.070312 53.027344 85.554688 51.027344 87.015625 48.246094 C 89.445312 43.582031 95.554688 38.378906 101.457031 35.835938 L 106.109375 33.898438 L 103.125 27.664062 C 100.972656 23.003906 99.859375 21.429688 98.820312 21.308594 C 97.640625 21.125 95.070312 25.96875 77.777344 61.257812 Z M 77.777344 61.257812 "/>
<path style=" stroke:none;fill-rule:nonzero;fill:rgb(100%,100%,100%);fill-opacity:1;" d="M 109.375 37.105469 C 101.390625 38.921875 94.167969 43.765625 90.832031 49.515625 C 89.445312 51.9375 89.234375 53.269531 89.234375 58.714844 C 89.304688 64.105469 89.515625 65.4375 90.832031 67.675781 C 94.375 73.546875 97.222656 75.484375 121.527344 88.257812 C 135.277344 95.519531 138.195312 97.820312 139.652344 102.480469 C 142.429688 111.5 135.140625 118.945312 122.917969 119.671875 C 107.570312 120.640625 97.5 113.863281 92.984375 99.578125 C 92.292969 97.214844 91.457031 95.882812 90.695312 95.761719 C 89.722656 95.582031 89.582031 96.914062 89.582031 110.109375 C 89.582031 124.03125 89.652344 124.699219 90.902344 124.699219 C 91.734375 124.699219 92.359375 124.152344 92.640625 123.183594 C 92.917969 122.335938 93.820312 121.246094 94.652344 120.761719 C 96.390625 119.792969 98.890625 120.21875 110.417969 123.304688 C 113.054688 123.972656 116.804688 124.335938 122.570312 124.335938 C 129.582031 124.335938 131.527344 124.152344 134.722656 123.003906 C 142.152344 120.398438 149.722656 113.984375 151.527344 108.65625 C 152.015625 107.324219 152.429688 103.933594 152.429688 101.089844 C 152.429688 96.609375 152.152344 95.460938 150.417969 92.3125 C 146.734375 85.835938 141.109375 81.960938 123.265625 73.546875 C 103.957031 64.527344 99.515625 60.59375 100.140625 53.148438 C 100.832031 45.21875 110.140625 40.074219 120.902344 41.765625 C 126.390625 42.613281 130.417969 44.308594 134.234375 47.214844 C 137.984375 50.121094 140.417969 53.996094 142.570312 60.53125 C 143.679688 63.742188 144.652344 65.679688 145.207031 65.679688 C 145.972656 65.679688 146.25 62.894531 146.390625 50.96875 C 146.527344 37.105469 146.457031 36.320312 145.277344 36.320312 C 144.515625 36.320312 143.609375 37.105469 142.984375 38.257812 C 141.109375 41.949219 140.554688 41.949219 129.304688 38.4375 C 123.125 36.5625 114.515625 35.957031 109.375 37.105469 Z M 109.375 37.105469 "/>
<path style=" stroke:none;fill-rule:nonzero;fill:rgb(100%,100%,100%);fill-opacity:1;" d="M 108.75 47.15625 C 104.792969 49.457031 103.195312 53.390625 104.792969 57.023438 C 105.765625 59.261719 109.582031 62.167969 116.179688 65.738281 C 119.582031 67.613281 122.429688 69.007812 122.5 68.886719 C 122.917969 68.523438 112.015625 46.367188 111.390625 46.1875 C 111.042969 46.125 109.859375 46.550781 108.75 47.15625 Z M 108.75 47.15625 "/>
<path style=" stroke:none;fill-rule:nonzero;fill:rgb(100%,100%,100%);fill-opacity:1;" d="M 145.695312 121.246094 L 142.359375 123.851562 L 151.042969 123.972656 L 159.722656 124.152344 L 159.722656 122.640625 C 159.722656 121.367188 159.304688 121.125 156.804688 120.761719 C 155.140625 120.519531 152.984375 119.914062 151.945312 119.492188 C 149.375 118.339844 149.375 118.339844 145.695312 121.246094 Z M 145.695312 121.246094 "/>
<path style=" stroke:none;fill-rule:nonzero;fill:rgb(100%,100%,100%);fill-opacity:1;" d="M 27.082031 127.664062 C 27.082031 130.023438 28.957031 134.441406 30.695312 136.199219 C 31.179688 136.683594 32.707031 137.832031 34.027344 138.742188 C 35.972656 140.011719 40.277344 145.277344 39.445312 145.277344 C 39.304688 145.277344 37.570312 144.734375 35.554688 144.066406 C 31.804688 142.796875 24.304688 142.371094 24.304688 143.460938 C 24.304688 144.429688 29.234375 146.914062 32.570312 147.699219 C 34.304688 148.125 37.015625 148.246094 38.609375 148.003906 L 41.597656 147.640625 L 44.722656 151.695312 C 46.457031 153.996094 47.777344 155.871094 47.640625 155.992188 C 47.570312 156.113281 45.972656 155.628906 44.167969 154.964844 C 40.484375 153.511719 31.25 152.601562 31.25 153.632812 C 31.25 154.359375 35.972656 157.265625 39.234375 158.535156 C 40.417969 159.019531 43.542969 159.441406 46.179688 159.503906 L 51.042969 159.5625 L 55.207031 163.4375 C 57.5 165.558594 58.75 167.070312 57.984375 166.828125 C 55.902344 166.164062 46.945312 165.617188 44.859375 166.101562 C 42.429688 166.648438 43.054688 167.3125 47.429688 169.308594 C 50.417969 170.640625 52.222656 170.945312 57.640625 171.1875 L 64.167969 171.488281 L 68.054688 174.757812 C 71.597656 177.785156 71.734375 178.027344 69.792969 177.542969 C 66.667969 176.816406 53.332031 176.996094 51.734375 177.785156 C 50.484375 178.390625 50.765625 178.632812 54.792969 180.328125 C 60.765625 182.75 65.484375 183.234375 71.597656 181.960938 L 76.390625 180.933594 L 81.804688 184.683594 C 84.929688 186.863281 86.457031 188.195312 85.417969 187.953125 C 80.765625 186.683594 62.847656 188.136719 62.847656 189.710938 C 62.847656 190.074219 64.375 190.980469 66.320312 191.828125 C 71.042969 194.007812 80.070312 194.066406 87.015625 192.007812 L 91.667969 190.558594 L 95.140625 192.433594 L 98.679688 194.308594 L 102.5 192.492188 L 106.320312 190.617188 L 110.625 191.886719 C 115.902344 193.523438 124.304688 194.066406 128.265625 193.160156 C 129.859375 192.796875 132.222656 191.707031 133.402344 190.800781 L 135.625 189.164062 L 133.265625 188.742188 C 127.777344 187.652344 119.582031 187.105469 115.625 187.589844 C 113.332031 187.894531 111.390625 188.074219 111.25 187.953125 C 111.179688 187.894531 113.472656 186.257812 116.320312 184.382812 L 121.597656 180.933594 L 126.25 181.902344 C 131.734375 183.113281 136.734375 182.808594 141.734375 180.933594 C 146.804688 178.996094 147.222656 178.207031 143.609375 177.359375 C 140.484375 176.574219 129.929688 176.816406 127.429688 177.664062 C 126.667969 177.90625 127.777344 176.574219 129.859375 174.699219 L 133.609375 171.308594 L 139.027344 171.308594 C 144.722656 171.308594 150.554688 169.855469 153.609375 167.675781 L 155.207031 166.585938 L 153.195312 166.101562 C 150.972656 165.617188 142.082031 166.101562 139.929688 166.828125 C 139.167969 167.128906 140.277344 165.617188 142.640625 163.257812 C 146.667969 159.261719 146.734375 159.261719 149.652344 159.625 C 153.265625 160.046875 159.027344 158.65625 163.054688 156.355469 C 166.734375 154.238281 166.875 153.148438 163.332031 153.148438 C 160.207031 153.148438 152.917969 154.722656 151.597656 155.691406 C 149.375 157.265625 150.070312 155.328125 152.917969 151.875 L 156.042969 148.0625 L 160.832031 148.003906 C 165.902344 147.941406 169.304688 146.914062 172.292969 144.492188 L 173.957031 143.160156 L 170.207031 142.976562 C 166.945312 142.796875 164.167969 143.339844 159.445312 144.976562 C 157.222656 145.761719 160.972656 140.679688 164.445312 138.136719 C 168.125 135.472656 170.277344 132.023438 170.417969 128.390625 C 170.554688 124.578125 168.890625 124.394531 165 127.84375 C 161.734375 130.628906 160.277344 133.777344 160.832031 136.984375 C 161.042969 138.378906 160.625 139.710938 159.167969 141.828125 L 157.222656 144.671875 L 156.390625 140.195312 C 155.554688 135.59375 153.75 130.75 152.777344 130.75 C 152.5 130.75 151.734375 131.839844 151.042969 133.171875 C 148.820312 137.53125 149.792969 142.675781 153.402344 145.519531 C 154.234375 146.1875 154.859375 147.035156 154.859375 147.398438 C 154.859375 148.246094 149.167969 154.902344 148.472656 154.964844 C 148.125 154.964844 147.917969 153.933594 147.917969 152.664062 C 147.917969 149.941406 146.320312 144.855469 144.929688 143.160156 C 143.957031 142.070312 143.890625 142.128906 142.777344 143.945312 C 140.695312 147.398438 141.734375 153.875 144.859375 156.902344 C 145.902344 157.871094 145.902344 158.050781 144.652344 159.382812 C 142.640625 161.683594 136.945312 167.070312 136.667969 167.070312 C 136.527344 167.070312 136.390625 165.375 136.390625 163.257812 C 136.390625 160.59375 135.972656 158.714844 134.929688 157.023438 C 132.222656 152.480469 128.890625 154.902344 129.375 161.136719 C 129.515625 163.863281 130.070312 165.195312 131.804688 167.3125 L 133.957031 169.976562 L 129.234375 173.609375 L 124.515625 177.300781 L 123.75 173.425781 C 123.332031 171.246094 122.292969 168.097656 121.320312 166.34375 L 119.652344 163.136719 L 118.402344 165.253906 C 117.5 166.648438 117.082031 168.644531 117.015625 171.066406 C 117.015625 174.09375 117.359375 175.179688 118.957031 177.300781 C 120 178.691406 120.695312 180.023438 120.554688 180.328125 C 120.140625 180.933594 110 187.046875 109.445312 187.046875 C 109.234375 187.046875 109.234375 186.257812 109.445312 185.289062 C 110.207031 182.082031 107.152344 170.097656 105.554688 170.097656 C 105.347656 170.097656 104.375 171.246094 103.402344 172.640625 C 102.015625 174.757812 101.734375 176.089844 101.734375 179.84375 C 101.734375 183.835938 101.945312 184.746094 103.679688 187.046875 C 104.792969 188.4375 105.417969 189.769531 105.070312 190.011719 C 100.070312 192.917969 99.234375 193.21875 97.359375 192.554688 C 96.320312 192.128906 94.792969 191.34375 93.957031 190.679688 L 92.359375 189.589844 L 94.097656 186.925781 C 97.222656 182.144531 97.015625 175.90625 93.609375 171.730469 L 92.152344 169.976562 L 91.25 171.429688 C 89.722656 173.910156 88.195312 180.144531 88.195312 183.65625 L 88.195312 187.046875 L 84.929688 185.230469 C 83.054688 184.261719 80.554688 182.6875 79.234375 181.71875 L 76.804688 179.964844 L 78.265625 177.90625 C 81.042969 174.03125 81.527344 171.308594 80.277344 167.492188 C 79.652344 165.617188 78.820312 163.921875 78.472656 163.742188 C 77.429688 163.195312 75 168.523438 74.027344 173.246094 L 73.265625 177.300781 L 68.402344 173.488281 L 63.542969 169.613281 L 65 168.21875 C 68.890625 164.46875 69.859375 159.320312 67.359375 155.691406 C 66.109375 153.933594 65.765625 153.753906 64.792969 154.480469 C 62.777344 155.933594 61.109375 159.988281 61.109375 163.742188 L 61.042969 167.371094 L 58.265625 164.648438 C 56.734375 163.136719 54.652344 161.078125 53.75 159.988281 L 52.015625 158.050781 L 53.75 155.75 C 56.042969 152.785156 56.667969 149.03125 55.554688 145.582031 C 55.070312 144.066406 54.445312 142.675781 54.097656 142.492188 C 52.570312 141.707031 48.609375 152.90625 49.792969 154.601562 C 50 154.902344 49.859375 155.023438 49.445312 154.902344 C 49.027344 154.78125 47.292969 153.085938 45.554688 151.089844 L 42.359375 147.578125 L 44.515625 145.460938 C 47.082031 142.855469 47.917969 141.101562 47.917969 138.015625 C 47.917969 135.59375 46.109375 130.75 45.207031 130.75 C 43.890625 130.75 41.527344 137.53125 40.832031 143.460938 C 40.625 144.792969 40.417969 144.671875 38.609375 141.949219 C 37.015625 139.648438 36.597656 138.316406 36.734375 136.078125 C 36.945312 132.445312 35.347656 129.480469 32.015625 127.117188 C 28.472656 124.515625 27.082031 124.699219 27.082031 127.664062 Z M 27.082031 127.664062 "/>
</g>
</svg>
