<?xml version="1.0" encoding="UTF-8"?>
<svg xmlns="http://www.w3.org/2000/svg" xmlns:xlink="http://www.w3.org/1999/xlink" width="50px" height="50px" viewBox="0 0 50 57" version="1.1">
<g id="surface1">
<path style=" stroke:none;fill-rule:nonzero;fill:rgb(53.725493%,45.490196%,33.333334%);fill-opacity:1;" d="M 23.003906 2.621094 C 17.605469 5.640625 10.363281 7.832031 3.941406 8.382812 L 2.605469 8.503906 L 2.605469 12.144531 C 2.605469 17.753906 3.316406 24.117188 4.445312 28.722656 C 4.878906 30.519531 6.164062 34.625 6.390625 34.933594 C 6.457031 35.039062 6.804688 35.210938 7.171875 35.316406 C 7.777344 35.488281 7.828125 35.488281 7.707031 35.226562 C 7.640625 35.074219 7.292969 34.074219 6.925781 33.039062 C 5.050781 27.601562 4.078125 21.683594 3.835938 14.40625 C 3.765625 12.128906 3.734375 10.109375 3.785156 9.917969 C 3.835938 9.609375 4.132812 9.523438 6.390625 9.195312 C 10.035156 8.644531 12.535156 8.054688 15.746094 6.988281 C 18.609375 6.039062 21.734375 4.675781 23.644531 3.519531 C 24.480469 3 24.757812 2.914062 25 3.070312 C 26.128906 3.761719 29.546875 5.453125 31.023438 6.039062 C 34.671875 7.46875 40.035156 8.832031 43.976562 9.332031 L 45.660156 9.539062 L 45.660156 12.75 C 45.660156 20.460938 44.269531 28.898438 42.117188 34.3125 L 41.683594 35.402344 L 42.328125 35.28125 C 42.671875 35.210938 43.003906 35.140625 43.019531 35.109375 C 43.054688 35.074219 43.386719 34.140625 43.765625 33.019531 C 45.746094 27.15625 46.648438 21.339844 46.824219 13.265625 L 46.925781 8.503906 L 45.554688 8.382812 C 43.871094 8.246094 39.636719 7.523438 37.761719 7.054688 C 34.027344 6.140625 29.6875 4.433594 26.5625 2.675781 C 25.625 2.15625 24.792969 1.726562 24.703125 1.742188 C 24.636719 1.742188 23.871094 2.140625 23.003906 2.621094 Z M 23.003906 2.621094 "/>
<path style=" stroke:none;fill-rule:nonzero;fill:rgb(53.725493%,45.490196%,33.333334%);fill-opacity:1;" d="M 19.445312 17.457031 C 13.734375 30.777344 12.742188 32.898438 11.980469 33.519531 C 11.683594 33.777344 11.007812 34.105469 10.484375 34.261719 C 9.6875 34.488281 9.546875 34.589844 9.546875 34.953125 L 9.546875 35.367188 L 18.578125 35.367188 L 18.578125 34.953125 C 18.578125 34.589844 18.472656 34.519531 17.761719 34.417969 C 17.292969 34.347656 16.597656 34.160156 16.199219 33.984375 C 14.859375 33.398438 14.929688 32.570312 16.632812 28.636719 L 17.847656 25.792969 L 29.046875 25.792969 L 29.546875 27 C 30.988281 30.449219 31.421875 31.621094 31.527344 32.261719 C 31.597656 32.640625 31.734375 32.949219 31.859375 32.949219 C 31.960938 32.949219 32.394531 32.710938 32.796875 32.417969 C 34.132812 31.46875 34.375 29.949219 33.386719 28.585938 C 33.019531 28.070312 32.117188 27.429688 29.773438 26.03125 L 26.648438 24.152344 L 22.585938 24.152344 C 19.410156 24.152344 18.558594 24.101562 18.628906 23.929688 C 18.679688 23.824219 19.253906 22.511719 19.894531 21.046875 C 21.042969 18.441406 21.078125 18.320312 21.179688 16.5625 C 21.265625 15.113281 21.390625 14.542969 21.753906 13.75 C 22.359375 12.421875 23.890625 10.9375 25.363281 10.214844 L 26.527344 9.660156 L 25.78125 7.882812 C 25.242188 6.554688 24.964844 6.105469 24.703125 6.074219 C 24.410156 6.019531 23.765625 7.402344 19.445312 17.457031 Z M 19.445312 17.457031 "/>
<path style=" stroke:none;fill-rule:nonzero;fill:rgb(53.725493%,45.490196%,33.333334%);fill-opacity:1;" d="M 27.34375 10.574219 C 25.347656 11.09375 23.542969 12.472656 22.707031 14.113281 C 22.359375 14.800781 22.308594 15.179688 22.308594 16.734375 C 22.328125 18.269531 22.378906 18.648438 22.707031 19.289062 C 23.59375 20.960938 24.304688 21.511719 30.382812 25.152344 C 33.820312 27.222656 34.546875 27.878906 34.914062 29.207031 C 35.609375 31.777344 33.785156 33.898438 30.730469 34.105469 C 26.890625 34.382812 24.375 32.449219 23.246094 28.378906 C 23.074219 27.707031 22.863281 27.328125 22.671875 27.292969 C 22.429688 27.242188 22.394531 27.621094 22.394531 31.382812 C 22.394531 35.347656 22.414062 35.539062 22.726562 35.539062 C 22.933594 35.539062 23.089844 35.382812 23.160156 35.109375 C 23.230469 34.867188 23.453125 34.554688 23.664062 34.417969 C 24.097656 34.140625 24.722656 34.261719 27.605469 35.140625 C 28.265625 35.332031 29.203125 35.433594 30.640625 35.433594 C 32.394531 35.433594 32.882812 35.382812 33.679688 35.054688 C 35.539062 34.3125 37.429688 32.484375 37.882812 30.96875 C 38.003906 30.585938 38.109375 29.621094 38.109375 28.808594 C 38.109375 27.535156 38.039062 27.207031 37.605469 26.308594 C 36.683594 24.464844 35.277344 23.359375 30.816406 20.960938 C 25.988281 18.390625 24.878906 17.269531 25.035156 15.148438 C 25.207031 12.886719 27.535156 11.421875 30.226562 11.902344 C 31.597656 12.144531 32.605469 12.628906 33.558594 13.457031 C 34.496094 14.285156 35.105469 15.386719 35.640625 17.25 C 35.921875 18.167969 36.164062 18.71875 36.300781 18.71875 C 36.492188 18.71875 36.5625 17.925781 36.597656 14.527344 C 36.632812 10.574219 36.613281 10.351562 36.320312 10.351562 C 36.128906 10.351562 35.902344 10.574219 35.746094 10.902344 C 35.277344 11.957031 35.140625 11.957031 32.328125 10.953125 C 30.78125 10.421875 28.628906 10.246094 27.34375 10.574219 Z M 27.34375 10.574219 "/>
<path style=" stroke:none;fill-rule:nonzero;fill:rgb(53.725493%,45.490196%,33.333334%);fill-opacity:1;" d="M 27.1875 13.4375 C 26.199219 14.09375 25.796875 15.214844 26.199219 16.25 C 26.441406 16.890625 27.394531 17.71875 29.046875 18.734375 C 29.894531 19.269531 30.609375 19.667969 30.625 19.632812 C 30.730469 19.527344 28.003906 13.214844 27.847656 13.164062 C 27.761719 13.144531 27.464844 13.265625 27.1875 13.4375 Z M 27.1875 13.4375 "/>
<path style=" stroke:none;fill-rule:nonzero;fill:rgb(53.725493%,45.490196%,33.333334%);fill-opacity:1;" d="M 36.421875 34.554688 L 35.589844 35.296875 L 37.761719 35.332031 L 39.929688 35.382812 L 39.929688 34.953125 C 39.929688 34.589844 39.828125 34.519531 39.203125 34.417969 C 38.785156 34.347656 38.246094 34.175781 37.984375 34.054688 C 37.34375 33.726562 37.34375 33.726562 36.421875 34.554688 Z M 36.421875 34.554688 "/>
<path style=" stroke:none;fill-rule:nonzero;fill:rgb(53.725493%,45.490196%,33.333334%);fill-opacity:1;" d="M 6.769531 36.382812 C 6.769531 37.058594 7.238281 38.316406 7.671875 38.816406 C 7.796875 38.953125 8.175781 39.28125 8.507812 39.542969 C 8.992188 39.902344 10.070312 41.40625 9.859375 41.40625 C 9.828125 41.40625 9.390625 41.25 8.890625 41.058594 C 7.953125 40.695312 6.078125 40.578125 6.078125 40.886719 C 6.078125 41.164062 7.308594 41.871094 8.140625 42.09375 C 8.578125 42.214844 9.253906 42.25 9.652344 42.179688 L 10.398438 42.078125 L 11.179688 43.234375 C 11.613281 43.886719 11.945312 44.421875 11.910156 44.457031 C 11.890625 44.492188 11.492188 44.355469 11.042969 44.164062 C 10.121094 43.75 7.8125 43.492188 7.8125 43.785156 C 7.8125 43.992188 8.992188 44.820312 9.808594 45.183594 C 10.105469 45.320312 10.886719 45.441406 11.546875 45.457031 L 12.761719 45.476562 L 13.800781 46.578125 C 14.375 47.183594 14.6875 47.613281 14.496094 47.546875 C 13.976562 47.355469 11.734375 47.199219 11.214844 47.339844 C 10.609375 47.496094 10.765625 47.683594 11.859375 48.253906 C 12.605469 48.632812 13.054688 48.71875 14.410156 48.789062 L 16.042969 48.875 L 17.015625 49.804688 C 17.898438 50.667969 17.933594 50.738281 17.449219 50.597656 C 16.667969 50.390625 13.332031 50.445312 12.933594 50.667969 C 12.621094 50.839844 12.691406 50.910156 13.699219 51.394531 C 15.191406 52.082031 16.371094 52.222656 17.898438 51.859375 L 19.097656 51.566406 L 20.453125 52.636719 C 21.234375 53.257812 21.613281 53.636719 21.355469 53.566406 C 20.191406 53.203125 15.710938 53.617188 15.710938 54.066406 C 15.710938 54.171875 16.09375 54.429688 16.578125 54.671875 C 17.761719 55.292969 20.015625 55.308594 21.753906 54.722656 L 22.917969 54.308594 L 23.785156 54.84375 L 24.671875 55.378906 L 25.625 54.859375 L 26.578125 54.324219 L 27.65625 54.6875 C 28.976562 55.152344 31.078125 55.308594 32.066406 55.050781 C 32.464844 54.945312 33.054688 54.636719 33.351562 54.378906 L 33.90625 53.910156 L 33.316406 53.792969 C 31.945312 53.480469 29.894531 53.324219 28.90625 53.464844 C 28.332031 53.550781 27.847656 53.601562 27.8125 53.566406 C 27.796875 53.550781 28.367188 53.082031 29.078125 52.550781 L 30.398438 51.566406 L 31.5625 51.839844 C 32.933594 52.1875 34.183594 52.101562 35.433594 51.566406 C 36.703125 51.011719 36.804688 50.789062 35.902344 50.546875 C 35.121094 50.324219 32.484375 50.390625 31.859375 50.632812 C 31.667969 50.703125 31.945312 50.324219 32.464844 49.789062 L 33.402344 48.824219 L 34.757812 48.824219 C 36.179688 48.824219 37.640625 48.410156 38.402344 47.789062 L 38.800781 47.476562 L 38.296875 47.339844 C 37.742188 47.199219 35.519531 47.339844 34.984375 47.546875 C 34.792969 47.632812 35.070312 47.199219 35.660156 46.527344 C 36.667969 45.390625 36.683594 45.390625 37.414062 45.492188 C 38.316406 45.613281 39.757812 45.21875 40.765625 44.5625 C 41.683594 43.957031 41.71875 43.648438 40.832031 43.648438 C 40.050781 43.648438 38.230469 44.09375 37.898438 44.371094 C 37.34375 44.820312 37.515625 44.269531 38.230469 43.285156 L 39.011719 42.199219 L 40.207031 42.179688 C 41.476562 42.164062 42.328125 41.871094 43.074219 41.179688 L 43.488281 40.800781 L 42.550781 40.75 C 41.734375 40.695312 41.042969 40.851562 39.859375 41.316406 C 39.304688 41.542969 40.242188 40.09375 41.109375 39.367188 C 42.03125 38.609375 42.570312 37.625 42.605469 36.589844 C 42.640625 35.503906 42.222656 35.453125 41.25 36.4375 C 40.433594 37.230469 40.070312 38.125 40.207031 39.039062 C 40.261719 39.4375 40.15625 39.816406 39.792969 40.421875 L 39.304688 41.230469 L 39.097656 39.957031 C 38.890625 38.644531 38.4375 37.265625 38.195312 37.265625 C 38.125 37.265625 37.933594 37.574219 37.761719 37.953125 C 37.203125 39.195312 37.449219 40.664062 38.351562 41.472656 C 38.558594 41.664062 38.714844 41.90625 38.714844 42.007812 C 38.714844 42.25 37.292969 44.148438 37.117188 44.164062 C 37.03125 44.164062 36.980469 43.871094 36.980469 43.507812 C 36.980469 42.734375 36.578125 41.285156 36.234375 40.800781 C 35.988281 40.488281 35.972656 40.507812 35.695312 41.023438 C 35.171875 42.007812 35.433594 43.855469 36.214844 44.714844 C 36.476562 44.992188 36.476562 45.042969 36.164062 45.425781 C 35.660156 46.078125 34.234375 47.613281 34.167969 47.613281 C 34.132812 47.613281 34.097656 47.132812 34.097656 46.527344 C 34.097656 45.769531 33.992188 45.234375 33.734375 44.75 C 33.054688 43.457031 32.222656 44.148438 32.34375 45.925781 C 32.378906 46.699219 32.515625 47.082031 32.953125 47.683594 L 33.488281 48.441406 L 32.308594 49.476562 L 31.128906 50.53125 L 30.9375 49.425781 C 30.832031 48.804688 30.574219 47.910156 30.328125 47.40625 L 29.914062 46.492188 L 29.601562 47.097656 C 29.375 47.496094 29.269531 48.0625 29.253906 48.753906 C 29.253906 49.617188 29.339844 49.925781 29.738281 50.53125 C 30 50.925781 30.171875 51.308594 30.140625 51.394531 C 30.035156 51.566406 27.5 53.308594 27.359375 53.308594 C 27.308594 53.308594 27.308594 53.082031 27.359375 52.808594 C 27.550781 51.894531 26.789062 48.476562 26.390625 48.476562 C 26.335938 48.476562 26.09375 48.804688 25.851562 49.203125 C 25.503906 49.804688 25.433594 50.183594 25.433594 51.253906 C 25.433594 52.394531 25.484375 52.652344 25.921875 53.308594 C 26.199219 53.703125 26.355469 54.085938 26.265625 54.152344 C 25.015625 54.980469 24.808594 55.066406 24.339844 54.878906 C 24.078125 54.757812 23.699219 54.53125 23.488281 54.34375 L 23.089844 54.03125 L 23.523438 53.273438 C 24.304688 51.910156 24.253906 50.132812 23.402344 48.945312 L 23.039062 48.441406 L 22.8125 48.855469 C 22.429688 49.566406 22.046875 51.339844 22.046875 52.34375 L 22.046875 53.308594 L 21.234375 52.789062 C 20.765625 52.515625 20.140625 52.066406 19.808594 51.789062 L 19.203125 51.289062 L 19.566406 50.703125 C 20.261719 49.597656 20.382812 48.824219 20.070312 47.734375 C 19.914062 47.199219 19.703125 46.71875 19.617188 46.667969 C 19.359375 46.511719 18.75 48.027344 18.507812 49.375 L 18.316406 50.53125 L 17.101562 49.445312 L 15.886719 48.339844 L 16.25 47.941406 C 17.222656 46.875 17.464844 45.40625 16.839844 44.371094 C 16.527344 43.871094 16.441406 43.820312 16.199219 44.027344 C 15.695312 44.441406 15.277344 45.597656 15.277344 46.667969 L 15.261719 47.703125 L 14.566406 46.925781 C 14.183594 46.492188 13.664062 45.90625 13.4375 45.597656 L 13.003906 45.042969 L 13.4375 44.390625 C 14.011719 43.542969 14.167969 42.472656 13.890625 41.492188 C 13.765625 41.058594 13.609375 40.664062 13.523438 40.609375 C 13.140625 40.386719 12.152344 43.578125 12.449219 44.0625 C 12.5 44.148438 12.464844 44.183594 12.359375 44.148438 C 12.257812 44.113281 11.824219 43.628906 11.390625 43.058594 L 10.589844 42.058594 L 11.128906 41.457031 C 11.769531 40.714844 11.980469 40.214844 11.980469 39.335938 C 11.980469 38.644531 11.527344 37.265625 11.300781 37.265625 C 10.972656 37.265625 10.382812 39.195312 10.207031 40.886719 C 10.15625 41.265625 10.105469 41.230469 9.652344 40.457031 C 9.253906 39.800781 9.148438 39.421875 9.183594 38.78125 C 9.234375 37.746094 8.835938 36.902344 8.003906 36.230469 C 7.117188 35.488281 6.769531 35.539062 6.769531 36.382812 Z M 6.769531 36.382812 "/>
</g>
</svg>
