<svg xmlns="http://www.w3.org/2000/svg" xmlns:xlink="http://www.w3.org/1999/xlink" width="50px" height="50px" viewBox="0 0 1200 1200">
  <g id="LmgsE_MXVEkIu1Gsd-U48">
<path style="stroke: rgb(114,114,114); stroke-width: 0; stroke-dasharray: none; stroke-linecap: butt; stroke-dashoffset: 0; stroke-linejoin: round; stroke-miterlimit: 4; fill: #897455; fill-rule: nonzero; opacity: 1;" vector-effect="non-scaling-stroke" transform="matrix(1 0 0 1 -2636.896943 -107.692306)  translate(0, 0)" d="" stroke-linecap="round"/>
</g>
<g id="xrgyt_e8gWgtq1tJH7Y9z">
<g>
		<g id="kUn71KSI60DRbfi2oPIhl">
<path style="stroke: rgb(193,193,193); stroke-width: 0; stroke-dasharray: none; stroke-linecap: butt; stroke-dashoffset: 0; stroke-linejoin: miter; stroke-miterlimit: 4; fill: #897455; fill-rule: nonzero; opacity: 1;" d="M131.00013,598.22845c21.09,-1.3 35.28,-94.66 42.57,-280.08c1.83,-44.79 2.74,-84.12 2.74,-117.97c0,-106.77 -8.72,-160.8 -26.17,-162.11h136.72l171.87,451.57l166.41,-451.57h124.61c-18.49,1.57 -27.74,63.55 -27.74,185.94c0,28.13 1.5,97.07 4.49,206.84c3,109.77 15.83,165.56 38.48,167.38h-150.39c20.31,-1.04 30.47,-66.01 30.47,-194.92c0,-86.2 -4.56,-200.91 -13.67,-344.14l-200.39,539.06h-27.35l-202.73,-528.12c-8.07,151.04 -12.11,269.66 -12.11,355.85c0,114.33 7.03,171.75 21.09,172.27z" stroke-linecap="round"/>
</g>
</g>
</g>
<g id="S8aGTQPMPIKAHdTBkKqHS">
<path style="stroke: rgb(193,193,193); stroke-width: 0; stroke-dasharray: none; stroke-linecap: butt; stroke-dashoffset: 0; stroke-linejoin: miter; stroke-miterlimit: 4; fill: #897455; fill-rule: nonzero; opacity: 1;" transform="matrix(1 0 0 1 -2636.896943 -107.692306)  translate(0, 0)" d="" stroke-linecap="round"/>
</g>
<g id="McavfKP6xqo7uZgJhA0UW">
<path style="stroke: rgb(193,193,193); stroke-width: 0; stroke-dasharray: none; stroke-linecap: butt; stroke-dashoffset: 0; stroke-linejoin: miter; stroke-miterlimit: 4; fill: #897455; fill-rule: nonzero; opacity: 1;" transform="matrix(1 0 0 1 -2636.896943 -107.692306)  translate(0, 0)" d="" stroke-linecap="round"/>
</g>
<g id="77EROVXnRW1H-lyXRQS_H">
<g style="">
		<g id="Layer_1-2">
<rect style="stroke: rgb(193,193,193); stroke-width: 0; stroke-dasharray: none; stroke-linecap: butt; stroke-dashoffset: 0; stroke-linejoin: miter; stroke-miterlimit: 4; fill: #897455; fill-rule: nonzero; opacity: 1;" x="-216.9" y="-5.875" rx="0" ry="0" width="433.8" height="11.75" transform="matrix(0.851064 0 0 0.851064 894.869053 598.228447) matrix(1 0 0 1 0 0)"/>
</g>
</g>
</g>
<g id="8tThnmtI0YUlgtA8bYXni">
<g style="">
		<g id="Layer_1-2">
<rect style="stroke: rgb(193,193,193); stroke-width: 0; stroke-dasharray: none; stroke-linecap: butt; stroke-dashoffset: 0; stroke-linejoin: miter; stroke-miterlimit: 4; fill: #897455; fill-rule: nonzero; opacity: 1;" x="-216.9" y="-5.875" rx="0" ry="0" width="433.8" height="11.75" transform="matrix(0.851064 0 0 0.851064 309.912246 597.232438) matrix(1 0 0 1 0 0)"/>
</g>
</g>
</g>
<g id="6LDsf2u1jLI2_bP0B1x-K">
<g style="">
		<g id="Layer_1-2">
<rect style="stroke: rgb(193,193,193); stroke-width: 0; stroke-dasharray: none; stroke-linecap: butt; stroke-dashoffset: 0; stroke-linejoin: miter; stroke-miterlimit: 4; fill: #897455; fill-rule: nonzero; opacity: 1;" x="-216.9" y="-5.875" rx="0" ry="0" width="433.8" height="11.75" transform="matrix(0.851064 0 0 0.851064 505.67749 597.232438) matrix(1 0 0 1 0 0)"/>
</g>
</g>
</g>
<g id="0Myx2QSqnPMGaws2a3QeQ">
<path style="stroke: rgb(114,114,114); stroke-width: 0; stroke-dasharray: none; stroke-linecap: butt; stroke-dashoffset: 0; stroke-linejoin: round; stroke-miterlimit: 4; fill: #897455; fill-rule: nonzero; opacity: 1;" vector-effect="non-scaling-stroke" transform="matrix(1 0 0 1 -2636.896943 -107.692306)  translate(0, 0)" d="" stroke-linecap="round"/>
</g>
<g id="h6SeZr3ONVhluU0rgk3Zz">
<g>
		<g id="dO7NdkYfVW7PGD9ypq59E">
<path style="stroke: rgb(193,193,193); stroke-width: 0; stroke-dasharray: none; stroke-linecap: butt; stroke-dashoffset: 0; stroke-linejoin: miter; stroke-miterlimit: 4; fill: #897455; fill-rule: nonzero; opacity: 1;" d="M568.66827,1153.38845c-134.63,-372.13 -210.93,-558.85 -228.9,-560.16h154.29c-4.17,0.26 -6.25,5.47 -6.25,15.63c0,44.27 40.89,183.86 122.66,418.75l94.92,-244.14c-44.27,-125 -77.08,-188.41 -98.44,-190.24h154.69c-3.65,0.26 -5.47,4.56 -5.47,12.89c0,41.93 42.32,183.6 126.96,425l161.72,-432.42c0,-3.12 -3.65,-4.94 -10.94,-5.47h46.87c-11.45,1.05 -88.01,187.77 -229.68,560.16h-10.55l-127.74,-352.34l-133.98,352.34z" stroke-linecap="round"/>
</g>
</g>
</g>
<g id="UFxHWAAIjKebddwY9k0lG">
<path style="stroke: rgb(193,193,193); stroke-width: 0; stroke-dasharray: none; stroke-linecap: butt; stroke-dashoffset: 0; stroke-linejoin: miter; stroke-miterlimit: 4; fill: #897455; fill-rule: nonzero; opacity: 1;" transform="matrix(1 0 0 1 -2636.896943 -107.692306)  translate(0, 0)" d="" stroke-linecap="round"/>
</g>
<g id="UzOll390tD2nepSQWlOng">
<path style="stroke: rgb(193,193,193); stroke-width: 0; stroke-dasharray: none; stroke-linecap: butt; stroke-dashoffset: 0; stroke-linejoin: miter; stroke-miterlimit: 4; fill: #897455; fill-rule: nonzero; opacity: 1;" transform="matrix(1 0 0 1 -2636.896943 -107.692306)  translate(0, 0)" d="" stroke-linecap="round"/>
</g>
<g id="sHgFCi6IyZnY6MDI7wfpn">
<g style="">
		<g id="Layer_1-2">
<path style="stroke: rgb(193,193,193); stroke-width: 0; stroke-dasharray: none; stroke-linecap: butt; stroke-dashoffset: 0; stroke-linejoin: miter; stroke-miterlimit: 4; fill: #897455; fill-rule: nonzero; opacity: 1;" d="M122.07999,46.34637v-8.27792h957.38489v8.27792z" stroke-linecap="round"/>
</g>
</g>
</g>
<g id="Kb7iXMvQb-2X3kYjXxQ0O">
<g style="">
		<g id="Layer_1-2">
<path style="stroke: rgb(193,193,193); stroke-width: 0; stroke-dasharray: none; stroke-linecap: butt; stroke-dashoffset: 0; stroke-linejoin: miter; stroke-miterlimit: 4; fill: #897455; fill-rule: nonzero; opacity: 1;" d="M122.07999,1157.52741v-8.27792h963.19347v8.27792z" stroke-linecap="round"/>
</g>
</g>
</g>
<g id="uRiGn1NjyJmvBnzZ0NLtY">
<g style="">
		<g id="Layer_1-2">
<path style="stroke: rgb(193,193,193); stroke-width: 0; stroke-dasharray: none; stroke-linecap: butt; stroke-dashoffset: 0; stroke-linejoin: miter; stroke-miterlimit: 4; fill: #897455; fill-rule: nonzero; opacity: 1;" d="M117.76468,1157.52741v-1119.45896h8.63045v1119.45896z" stroke-linecap="round"/>
</g>
</g>
</g>
<g id="J0Vq4aMWJTXphn5U8Eb-V">
<g style="">
		<g id="Layer_1-2">
<path style="stroke: rgb(193,193,193); stroke-width: 0; stroke-dasharray: none; stroke-linecap: butt; stroke-dashoffset: 0; stroke-linejoin: miter; stroke-miterlimit: 4; fill: #897455; fill-rule: nonzero; opacity: 1;" d="M1079.46483,1156.96192v-1119.45896h11.25407v1119.45896z" stroke-linecap="round"/>
</g>
</g>
</g>

  </svg>
