<?xml version="1.0" encoding="UTF-8"?>
<svg xmlns="http://www.w3.org/2000/svg" xmlns:xlink="http://www.w3.org/1999/xlink" width="44px" height="50px" viewBox="0 0 44 50" version="1.1">
<g id="surface1">
<path style=" stroke:none;fill-rule:nonzero;fill:rgb(100%,100%,100%);fill-opacity:1;" d="M 20.242188 2.300781 C 15.492188 4.949219 9.121094 6.871094 3.46875 7.355469 L 2.292969 7.460938 L 2.292969 10.652344 C 2.292969 15.570312 2.917969 21.15625 3.910156 25.195312 C 4.292969 26.769531 5.421875 30.371094 5.621094 30.644531 C 5.683594 30.734375 5.988281 30.886719 6.308594 30.976562 C 6.84375 31.128906 6.890625 31.128906 6.785156 30.902344 C 6.722656 30.765625 6.417969 29.886719 6.097656 28.980469 C 4.445312 24.214844 3.589844 19.023438 3.375 12.636719 C 3.316406 10.636719 3.285156 8.867188 3.332031 8.703125 C 3.375 8.429688 3.636719 8.351562 5.621094 8.066406 C 8.832031 7.582031 11.03125 7.066406 13.855469 6.128906 C 16.378906 5.296875 19.128906 4.101562 20.808594 3.085938 C 21.542969 2.632812 21.785156 2.558594 22 2.695312 C 22.992188 3.300781 26.003906 4.78125 27.300781 5.296875 C 30.507812 6.550781 35.230469 7.75 38.699219 8.1875 L 40.179688 8.367188 L 40.179688 11.183594 C 40.179688 17.949219 38.957031 25.347656 37.0625 30.101562 L 36.683594 31.054688 L 37.246094 30.949219 C 37.554688 30.886719 37.84375 30.828125 37.859375 30.796875 C 37.890625 30.765625 38.179688 29.949219 38.515625 28.964844 C 40.257812 23.820312 41.050781 18.71875 41.203125 11.636719 L 41.296875 7.460938 L 40.089844 7.355469 C 38.605469 7.234375 34.878906 6.597656 33.230469 6.191406 C 29.945312 5.386719 26.125 3.890625 23.375 2.34375 C 22.550781 1.890625 21.816406 1.511719 21.742188 1.527344 C 21.679688 1.527344 21.007812 1.875 20.242188 2.300781 Z M 20.242188 2.300781 "/>
<path style=" stroke:none;fill-rule:nonzero;fill:rgb(100%,100%,100%);fill-opacity:1;" d="M 17.109375 15.316406 C 12.085938 26.996094 11.214844 28.859375 10.542969 29.402344 C 10.28125 29.628906 9.6875 29.917969 9.226562 30.054688 C 8.523438 30.25 8.402344 30.34375 8.402344 30.660156 L 8.402344 31.023438 L 16.347656 31.023438 L 16.347656 30.660156 C 16.347656 30.34375 16.253906 30.28125 15.628906 30.191406 C 15.214844 30.128906 14.605469 29.964844 14.253906 29.8125 C 13.078125 29.296875 13.140625 28.570312 14.636719 25.121094 L 15.707031 22.625 L 25.558594 22.625 L 26.003906 23.683594 C 27.269531 26.710938 27.652344 27.738281 27.746094 28.300781 C 27.804688 28.632812 27.929688 28.90625 28.035156 28.90625 C 28.125 28.90625 28.507812 28.691406 28.859375 28.433594 C 30.035156 27.601562 30.25 26.269531 29.378906 25.074219 C 29.058594 24.621094 28.265625 24.0625 26.203125 22.835938 L 23.453125 21.1875 L 19.875 21.1875 C 17.082031 21.1875 16.332031 21.140625 16.394531 20.988281 C 16.4375 20.898438 16.941406 19.75 17.507812 18.460938 C 18.515625 16.175781 18.546875 16.070312 18.640625 14.527344 C 18.714844 13.257812 18.820312 12.757812 19.144531 12.0625 C 19.679688 10.894531 21.023438 9.59375 22.320312 8.957031 L 23.34375 8.472656 L 22.6875 6.914062 C 22.214844 5.75 21.96875 5.355469 21.742188 5.328125 C 21.480469 5.28125 20.914062 6.492188 17.109375 15.316406 Z M 17.109375 15.316406 "/>
<path style=" stroke:none;fill-rule:nonzero;fill:rgb(100%,100%,100%);fill-opacity:1;" d="M 24.0625 9.277344 C 22.304688 9.730469 20.714844 10.941406 19.984375 12.378906 C 19.679688 12.984375 19.632812 13.316406 19.632812 14.679688 C 19.648438 16.027344 19.691406 16.359375 19.984375 16.917969 C 20.761719 18.386719 21.390625 18.871094 26.734375 22.0625 C 29.761719 23.878906 30.402344 24.457031 30.722656 25.621094 C 31.335938 27.875 29.730469 29.738281 27.042969 29.917969 C 23.664062 30.160156 21.449219 28.464844 20.457031 24.894531 C 20.304688 24.304688 20.121094 23.972656 19.953125 23.941406 C 19.738281 23.894531 19.707031 24.226562 19.707031 27.527344 C 19.707031 31.007812 19.722656 31.175781 20 31.175781 C 20.183594 31.175781 20.320312 31.039062 20.378906 30.796875 C 20.441406 30.585938 20.640625 30.3125 20.824219 30.191406 C 21.207031 29.949219 21.753906 30.054688 24.292969 30.828125 C 24.871094 30.992188 25.695312 31.082031 26.964844 31.082031 C 28.507812 31.082031 28.9375 31.039062 29.640625 30.75 C 31.273438 30.101562 32.9375 28.496094 33.335938 27.164062 C 33.441406 26.832031 33.535156 25.984375 33.535156 25.273438 C 33.535156 24.152344 33.472656 23.863281 33.089844 23.078125 C 32.28125 21.457031 31.042969 20.492188 27.117188 18.386719 C 22.871094 16.132812 21.894531 15.148438 22.03125 13.285156 C 22.183594 11.304688 24.230469 10.019531 26.597656 10.441406 C 27.804688 10.652344 28.691406 11.078125 29.53125 11.804688 C 30.355469 12.53125 30.890625 13.5 31.367188 15.132812 C 31.609375 15.933594 31.824219 16.417969 31.945312 16.417969 C 32.113281 16.417969 32.175781 15.722656 32.207031 12.742188 C 32.234375 9.277344 32.222656 9.078125 31.960938 9.078125 C 31.792969 9.078125 31.59375 9.277344 31.457031 9.5625 C 31.042969 10.488281 30.921875 10.488281 28.445312 9.609375 C 27.085938 9.140625 25.191406 8.988281 24.0625 9.277344 Z M 24.0625 9.277344 "/>
<path style=" stroke:none;fill-rule:nonzero;fill:rgb(100%,100%,100%);fill-opacity:1;" d="M 23.925781 11.789062 C 23.054688 12.363281 22.703125 13.347656 23.054688 14.253906 C 23.269531 14.816406 24.109375 15.542969 25.558594 16.433594 C 26.308594 16.902344 26.933594 17.25 26.949219 17.222656 C 27.042969 17.128906 24.644531 11.59375 24.503906 11.546875 C 24.429688 11.53125 24.167969 11.636719 23.925781 11.789062 Z M 23.925781 11.789062 "/>
<path style=" stroke:none;fill-rule:nonzero;fill:rgb(100%,100%,100%);fill-opacity:1;" d="M 32.054688 30.3125 L 31.320312 30.960938 L 33.230469 30.992188 L 35.140625 31.039062 L 35.140625 30.660156 C 35.140625 30.34375 35.046875 30.28125 34.496094 30.191406 C 34.128906 30.128906 33.65625 29.980469 33.429688 29.871094 C 32.863281 29.585938 32.863281 29.585938 32.054688 30.3125 Z M 32.054688 30.3125 "/>
<path style=" stroke:none;fill-rule:nonzero;fill:rgb(100%,100%,100%);fill-opacity:1;" d="M 5.957031 31.914062 C 5.957031 32.507812 6.371094 33.609375 6.753906 34.050781 C 6.859375 34.171875 7.195312 34.457031 7.484375 34.683594 C 7.914062 35.003906 8.859375 36.320312 8.679688 36.320312 C 8.648438 36.320312 8.265625 36.183594 7.820312 36.015625 C 6.996094 35.699219 5.347656 35.59375 5.347656 35.867188 C 5.347656 36.109375 6.433594 36.726562 7.164062 36.925781 C 7.546875 37.03125 8.144531 37.0625 8.496094 37 L 9.152344 36.910156 L 9.839844 37.921875 C 10.222656 38.5 10.511719 38.96875 10.480469 39 C 10.464844 39.027344 10.113281 38.90625 9.714844 38.742188 C 8.90625 38.378906 6.875 38.152344 6.875 38.40625 C 6.875 38.589844 7.914062 39.316406 8.632812 39.632812 C 8.890625 39.753906 9.578125 39.859375 10.160156 39.875 L 11.230469 39.890625 L 12.144531 40.859375 C 12.648438 41.390625 12.925781 41.765625 12.757812 41.707031 C 12.296875 41.539062 10.328125 41.40625 9.871094 41.527344 C 9.335938 41.660156 9.472656 41.828125 10.433594 42.328125 C 11.089844 42.660156 11.488281 42.734375 12.679688 42.796875 L 14.117188 42.871094 L 14.972656 43.691406 C 15.75 44.445312 15.78125 44.507812 15.355469 44.386719 C 14.667969 44.203125 11.734375 44.25 11.382812 44.445312 C 11.105469 44.597656 11.167969 44.65625 12.054688 45.082031 C 13.367188 45.6875 14.40625 45.808594 15.75 45.492188 L 16.804688 45.234375 L 17.996094 46.171875 C 18.683594 46.714844 19.019531 47.050781 18.792969 46.988281 C 17.769531 46.671875 13.828125 47.035156 13.828125 47.425781 C 13.828125 47.519531 14.164062 47.746094 14.589844 47.957031 C 15.628906 48.5 17.617188 48.515625 19.144531 48.003906 L 20.167969 47.640625 L 20.929688 48.109375 L 21.710938 48.578125 L 22.550781 48.125 L 23.390625 47.65625 L 24.335938 47.972656 C 25.5 48.378906 27.347656 48.515625 28.21875 48.289062 C 28.570312 48.199219 29.089844 47.925781 29.347656 47.699219 L 29.835938 47.292969 L 29.316406 47.183594 C 28.109375 46.914062 26.308594 46.777344 25.4375 46.898438 C 24.933594 46.972656 24.503906 47.019531 24.476562 46.988281 C 24.460938 46.972656 24.964844 46.566406 25.589844 46.09375 L 26.75 45.234375 L 27.773438 45.476562 C 28.980469 45.777344 30.082031 45.703125 31.183594 45.234375 C 32.296875 44.75 32.390625 44.550781 31.59375 44.339844 C 30.90625 44.144531 28.585938 44.203125 28.035156 44.414062 C 27.867188 44.476562 28.109375 44.144531 28.570312 43.675781 L 29.394531 42.828125 L 30.585938 42.828125 C 31.839844 42.828125 33.121094 42.464844 33.792969 41.917969 L 34.144531 41.648438 L 33.703125 41.527344 C 33.214844 41.40625 31.257812 41.527344 30.785156 41.707031 C 30.617188 41.78125 30.859375 41.40625 31.378906 40.8125 C 32.265625 39.816406 32.28125 39.816406 32.921875 39.90625 C 33.71875 40.011719 34.984375 39.664062 35.871094 39.089844 C 36.683594 38.558594 36.710938 38.285156 35.933594 38.285156 C 35.246094 38.285156 33.640625 38.679688 33.351562 38.921875 C 32.863281 39.316406 33.015625 38.832031 33.640625 37.96875 L 34.328125 37.015625 L 35.382812 37 C 36.5 36.984375 37.246094 36.726562 37.902344 36.121094 L 38.269531 35.789062 L 37.445312 35.746094 C 36.726562 35.699219 36.117188 35.835938 35.078125 36.242188 C 34.589844 36.441406 35.414062 35.167969 36.179688 34.535156 C 36.988281 33.867188 37.460938 33.003906 37.492188 32.097656 C 37.523438 31.144531 37.15625 31.097656 36.300781 31.960938 C 35.582031 32.65625 35.261719 33.445312 35.382812 34.246094 C 35.429688 34.59375 35.335938 34.925781 35.015625 35.457031 L 34.589844 36.167969 L 34.40625 35.046875 C 34.222656 33.898438 33.824219 32.6875 33.609375 32.6875 C 33.550781 32.6875 33.382812 32.960938 33.230469 33.292969 C 32.742188 34.382812 32.953125 35.667969 33.75 36.378906 C 33.933594 36.546875 34.070312 36.757812 34.070312 36.847656 C 34.070312 37.0625 32.816406 38.726562 32.664062 38.742188 C 32.585938 38.742188 32.542969 38.484375 32.542969 38.164062 C 32.542969 37.484375 32.191406 36.214844 31.882812 35.789062 C 31.671875 35.515625 31.65625 35.53125 31.410156 35.988281 C 30.953125 36.847656 31.183594 38.46875 31.871094 39.226562 C 32.097656 39.46875 32.097656 39.511719 31.824219 39.84375 C 31.378906 40.421875 30.128906 41.765625 30.066406 41.765625 C 30.035156 41.765625 30.003906 41.34375 30.003906 40.8125 C 30.003906 40.148438 29.914062 39.679688 29.683594 39.253906 C 29.089844 38.121094 28.355469 38.726562 28.460938 40.285156 C 28.492188 40.964844 28.617188 41.296875 28.996094 41.828125 L 29.472656 42.492188 L 28.433594 43.402344 L 27.394531 44.324219 L 27.226562 43.355469 C 27.132812 42.8125 26.902344 42.023438 26.691406 41.585938 L 26.324219 40.785156 L 26.046875 41.3125 C 25.851562 41.660156 25.757812 42.160156 25.742188 42.765625 C 25.742188 43.523438 25.820312 43.796875 26.171875 44.324219 C 26.398438 44.671875 26.554688 45.007812 26.523438 45.082031 C 26.429688 45.234375 24.199219 46.761719 24.078125 46.761719 C 24.03125 46.761719 24.03125 46.566406 24.078125 46.324219 C 24.246094 45.519531 23.574219 42.523438 23.222656 42.523438 C 23.175781 42.523438 22.960938 42.8125 22.75 43.160156 C 22.441406 43.691406 22.382812 44.023438 22.382812 44.960938 C 22.382812 45.960938 22.429688 46.1875 22.808594 46.761719 C 23.054688 47.109375 23.191406 47.441406 23.117188 47.503906 C 22.015625 48.230469 21.832031 48.304688 21.417969 48.136719 C 21.191406 48.03125 20.855469 47.835938 20.671875 47.667969 L 20.320312 47.398438 L 20.703125 46.730469 C 21.390625 45.535156 21.34375 43.976562 20.59375 42.933594 L 20.273438 42.492188 L 20.074219 42.855469 C 19.738281 43.476562 19.402344 45.035156 19.402344 45.914062 L 19.402344 46.761719 L 18.683594 46.308594 C 18.273438 46.066406 17.722656 45.671875 17.433594 45.429688 L 16.898438 44.992188 L 17.21875 44.476562 C 17.828125 43.507812 17.9375 42.828125 17.660156 41.875 C 17.523438 41.40625 17.339844 40.980469 17.265625 40.933594 C 17.035156 40.800781 16.5 42.128906 16.285156 43.3125 L 16.117188 44.324219 L 15.046875 43.371094 L 13.980469 42.402344 L 14.300781 42.054688 C 15.15625 41.117188 15.371094 39.832031 14.820312 38.921875 C 14.542969 38.484375 14.46875 38.4375 14.253906 38.621094 C 13.8125 38.984375 13.445312 39.996094 13.445312 40.933594 L 13.429688 41.84375 L 12.816406 41.164062 C 12.480469 40.785156 12.023438 40.269531 11.824219 39.996094 L 11.441406 39.511719 L 11.824219 38.9375 C 12.328125 38.195312 12.464844 37.257812 12.222656 36.394531 C 12.117188 36.015625 11.976562 35.667969 11.902344 35.625 C 11.566406 35.425781 10.695312 38.226562 10.953125 38.648438 C 11 38.726562 10.96875 38.757812 10.878906 38.726562 C 10.785156 38.695312 10.402344 38.273438 10.023438 37.773438 L 9.320312 36.894531 L 9.792969 36.363281 C 10.359375 35.714844 10.542969 35.277344 10.542969 34.503906 C 10.542969 33.898438 10.144531 32.6875 9.945312 32.6875 C 9.65625 32.6875 9.136719 34.382812 8.984375 35.867188 C 8.9375 36.199219 8.890625 36.167969 8.496094 35.488281 C 8.144531 34.914062 8.050781 34.578125 8.082031 34.019531 C 8.128906 33.113281 7.777344 32.371094 7.042969 31.78125 C 6.265625 31.128906 5.957031 31.175781 5.957031 31.914062 Z M 5.957031 31.914062 "/>
</g>
</svg>
