<?xml version="1.0" standalone="no"?> <!DOCTYPE svg PUBLIC "-//W3C//DTD SVG 20010904//EN" "http://www.w3.org/TR/2001/REC-SVG-20010904/DTD/svg10.dtd"> <svg version="1.0" xmlns="http://www.w3.org/2000/svg" width="288.000000pt" height="330.000000pt" viewBox="0 0 288.000000 330.000000" preserveAspectRatio="xMidYMid meet"> <g transform="translate(0.000000,330.000000) scale(0.100000,-0.100000)" fill="#ffffff" stroke="none"> <path d="M1325 3148 c-311 -175 -728 -302 -1098 -334 l-77 -7 0 -211 c0 -325 41 -694 106 -961 25 -104 99 -342 112 -360 4 -6 24 -16 45 -22 35 -10 38 -10 31 5 -4 9 -24 67 -45 127 -108 315 -164 658 -178 1080 -4 132 -6 249 -3 260 3 18 20 23 150 42 210 32 354 66 539 128 165 55 345 134 455 201 48 30 64 35 78 26 65 -40 262 -138 347 -172 210 -83 519 -162 746 -191 l97 -12 0 -186 c0 -447 -80 -936 -204 -1250 l-25 -63 37 7 c20 4 39 8 40 10 2 2 21 56 43 121 114 340 166 677 176 1145 l6 276 -79 7 c-97 8 -341 50 -449 77 -215 53 -465 152 -645 254 -54 30 -102 55 -107 54 -4 0 -48 -23 -98 -51z"/> <path d="M1120 2288 c-329 -772 -386 -895 -430 -931 -17 -15 -56 -34 -86 -43 -46 -13 -54 -19 -54 -40 l0 -24 260 0 260 0 0 24 c0 21 -6 25 -47 31 -27 4 -67 15 -90 25 -77 34 -73 82 25 310 l70 165 323 0 322 0 29 -70 c83 -200 108 -268 114 -305 4 -22 12 -40 19 -40 6 0 31 14 54 31 77 55 91 143 34 222 -21 30 -73 67 -208 148 l-180 109 -234 0 c-183 0 -232 3 -228 13 3 6 36 82 73 167 66 151 68 158 74 260 5 84 12 117 33 163 35 77 123 163 208 205 l67 32 -43 103 c-31 77 -47 103 -62 105 -17 3 -54 -77 -303 -660z"/> <path d="M1575 2687 c-115 -30 -219 -110 -267 -205 -20 -40 -23 -62 -23 -152 1 -89 4 -111 23 -148 51 -97 92 -129 442 -340 198 -120 240 -158 261 -235 40 -149 -65 -272 -241 -284 -221 -16 -366 96 -431 332 -10 39 -22 61 -33 63 -14 3 -16 -19 -16 -237 0 -230 1 -241 19 -241 12 0 21 9 25 25 4 14 17 32 29 40 25 16 61 9 227 -42 38 -11 92 -17 175 -17 101 0 129 3 175 22 107 43 216 149 242 237 7 22 13 78 13 125 0 74 -4 93 -29 145 -53 107 -134 171 -391 310 -278 149 -342 214 -333 337 10 131 144 216 299 188 79 -14 137 -42 192 -90 54 -48 89 -112 120 -220 16 -53 30 -85 38 -85 11 0 15 46 17 243 2 229 1 242 -16 242 -11 0 -24 -13 -33 -32 -27 -61 -35 -61 -197 -3 -89 31 -213 41 -287 22z"/> <path d="M1566 2521 c-57 -38 -80 -103 -57 -163 14 -37 69 -85 164 -144 49 -31 90 -54 91 -52 6 6 -151 372 -160 375 -5 1 -22 -6 -38 -16z"/> <path d="M2098 1297 l-48 -43 125 -2 125 -3 0 25 c0 21 -6 25 -42 31 -24 4 -55 14 -70 21 -37 19 -37 19 -90 -29z"/> <path d="M390 1191 c0 -39 27 -112 52 -141 7 -8 29 -27 48 -42 28 -21 90 -108 78 -108 -2 0 -27 9 -56 20 -54 21 -162 28 -162 10 0 -16 71 -57 119 -70 25 -7 64 -9 87 -5 l43 6 45 -67 c25 -38 44 -69 42 -71 -1 -2 -24 6 -50 17 -53 24 -186 39 -186 22 0 -12 68 -60 115 -81 17 -8 62 -15 100 -16 l70 -1 60 -64 c33 -35 51 -60 40 -56 -30 11 -159 20 -189 12 -35 -9 -26 -20 37 -53 43 -22 69 -27 147 -31 l94 -5 56 -54 c51 -50 53 -54 25 -46 -45 12 -237 9 -260 -4 -18 -10 -14 -14 44 -42 86 -40 154 -48 242 -27 l69 17 78 -62 c45 -36 67 -58 52 -54 -67 21 -325 -3 -325 -29 0 -6 22 -21 50 -35 68 -36 198 -37 298 -3 l67 24 50 -31 51 -31 55 30 55 31 62 -21 c76 -27 197 -36 254 -21 23 6 57 24 74 39 l32 27 -34 7 c-79 18 -197 27 -254 19 -33 -5 -61 -8 -63 -6 -1 1 32 28 73 59 l76 57 67 -16 c79 -20 151 -15 223 16 73 32 79 45 27 59 -45 13 -197 9 -233 -5 -11 -4 5 18 35 49 l54 56 78 0 c82 0 166 24 210 60 l23 18 -29 8 c-32 8 -160 0 -191 -12 -11 -5 5 20 39 59 58 66 59 66 101 60 52 -7 135 16 193 54 53 35 55 53 4 53 -45 0 -150 -26 -169 -42 -32 -26 -22 6 19 63 l45 63 69 1 c73 1 122 18 165 58 l24 22 -54 3 c-47 3 -87 -6 -155 -33 -32 -13 22 71 72 113 53 44 84 101 86 161 2 63 -22 66 -78 9 -47 -46 -68 -98 -60 -151 3 -23 -3 -45 -24 -80 l-28 -47 -12 74 c-12 76 -38 156 -52 156 -4 0 -15 -18 -25 -40 -32 -72 -18 -157 34 -204 12 -11 21 -25 21 -31 0 -14 -82 -124 -92 -125 -5 0 -8 17 -8 38 0 45 -23 129 -43 157 -14 18 -15 17 -31 -13 -30 -57 -15 -164 30 -214 15 -16 15 -19 -3 -41 -29 -38 -111 -127 -115 -127 -2 0 -4 28 -4 63 0 44 -6 75 -21 103 -39 75 -87 35 -80 -68 2 -45 10 -67 35 -102 l31 -44 -68 -60 -68 -61 -11 64 c-6 36 -21 88 -35 117 l-24 53 -18 -35 c-13 -23 -19 -56 -20 -96 0 -50 5 -68 28 -103 15 -23 25 -45 23 -50 -6 -10 -152 -111 -160 -111 -3 0 -3 13 0 29 11 53 -33 251 -56 251 -3 0 -17 -19 -31 -42 -20 -35 -24 -57 -24 -119 0 -66 3 -81 28 -119 16 -23 25 -45 20 -49 -72 -48 -84 -53 -111 -42 -15 7 -37 20 -49 31 l-23 18 25 44 c45 79 42 182 -7 251 l-21 29 -13 -24 c-22 -41 -44 -144 -44 -202 l0 -56 -47 30 c-27 16 -63 42 -82 58 l-35 29 21 34 c40 64 47 109 29 172 -9 31 -21 59 -26 62 -15 9 -50 -79 -64 -157 l-11 -67 -70 63 -70 64 21 23 c56 62 70 147 34 207 -18 29 -23 32 -37 20 -29 -24 -53 -91 -53 -153 l-1 -60 -40 45 c-22 25 -52 59 -65 77 l-25 32 25 38 c33 49 42 111 26 168 -7 25 -16 48 -21 51 -22 13 -79 -172 -62 -200 3 -5 1 -7 -5 -5 -6 2 -31 30 -56 63 l-46 58 31 35 c37 43 49 72 49 123 0 40 -26 120 -39 120 -19 0 -53 -112 -63 -210 -3 -22 -6 -20 -32 25 -23 38 -29 60 -27 97 3 60 -20 109 -68 148 -51 43 -71 40 -71 -9z"/> </g> </svg>
